<?xml version="1.0" encoding="UTF-8"?>
<!DOCTYPE svg PUBLIC "-//W3C//DTD SVG 1.1//EN" "http://www.w3.org/Graphics/SVG/1.1/DTD/svg11.dtd">
<svg xmlns="http://www.w3.org/2000/svg" version="1.1" width="485px" height="135px" style="shape-rendering:geometricPrecision; text-rendering:geometricPrecision; image-rendering:optimizeQuality; fill-rule:evenodd; clip-rule:evenodd" xmlns:xlink="http://www.w3.org/1999/xlink">
<g><path style="opacity:1" fill="#fefdfd" d="M -0.5,-0.5 C 161.167,-0.5 322.833,-0.5 484.5,-0.5C 484.5,44.5 484.5,89.5 484.5,134.5C 322.833,134.5 161.167,134.5 -0.5,134.5C -0.5,89.5 -0.5,44.5 -0.5,-0.5 Z"/></g>
<g><path style="opacity:1" fill="#431391" d="M 83.5,46.5 C 82.3406,48.2503 80.674,49.2503 78.5,49.5C 73.4987,44.9956 67.832,41.4956 61.5,39C 56.0081,38.5141 54.1747,41.0141 56,46.5C 57.395,51.6181 59.5617,56.2848 62.5,60.5C 62.9321,61.7095 63.5987,62.7095 64.5,63.5C 67.1231,67.7908 70.4564,71.4575 74.5,74.5C 75.1667,75.8333 76.1667,76.8333 77.5,77.5C 76.4206,79.543 74.754,80.8763 72.5,81.5C 69.4118,76.3197 66.0785,71.3197 62.5,66.5C 62.2671,64.9382 61.6005,63.6049 60.5,62.5C 55.1665,53.1602 52.3331,43.1602 52,32.5C 53.4174,28.359 56.2508,26.859 60.5,28C 69.7027,32.2666 77.3694,38.4333 83.5,46.5 Z"/></g>
<g><path style="opacity:1" fill="#fcf9fb" d="M 78.5,49.5 C 72.819,52.6728 67.4856,56.3395 62.5,60.5C 59.5617,56.2848 57.395,51.6181 56,46.5C 54.1747,41.0141 56.0081,38.5141 61.5,39C 67.832,41.4956 73.4987,44.9956 78.5,49.5 Z"/></g>
<g><path style="opacity:1" fill="#f31f17" d="M 84.5,49.5 C 82.847,49.6596 81.5137,50.3263 80.5,51.5C 74.8838,55.1153 69.5505,59.1153 64.5,63.5C 63.5987,62.7095 62.9321,61.7095 62.5,60.5C 67.4856,56.3395 72.819,52.6728 78.5,49.5C 80.674,49.2503 82.3406,48.2503 83.5,46.5C 89.3809,44.0621 95.3809,41.8955 101.5,40C 113.531,37.8358 116.865,42.0025 111.5,52.5C 108.216,53.657 104.882,53.8236 101.5,53C 103.059,50.3583 102.725,48.025 100.5,46C 94.5332,44.7457 89.1999,45.9124 84.5,49.5 Z"/></g>
<g><path style="opacity:1" fill="#501e95" d="M 84.5,49.5 C 87.8016,50.9785 87.9682,52.3118 85,53.5C 83.167,53.4814 81.667,52.8148 80.5,51.5C 81.5137,50.3263 82.847,49.6596 84.5,49.5 Z"/></g>
<g><path style="opacity:1" fill="#121212" d="M 74.5,74.5 C 76.7114,68.4067 79.2114,62.4067 82,56.5C 83.8138,55.2404 85.6471,55.2404 87.5,56.5C 90.2673,62.3084 92.934,68.1418 95.5,74C 93.7412,74.7975 92.0745,74.6309 90.5,73.5C 88.7641,69.1259 86.9308,64.7925 85,60.5C 83.2426,63.6843 81.7426,67.0176 80.5,70.5C 82.9109,71.088 84.9109,72.2546 86.5,74C 82.5138,74.4988 78.5138,74.6655 74.5,74.5 Z"/></g>
<g><path style="opacity:1" fill="#171717" d="M 112.5,55.5 C 114.167,55.5 115.833,55.5 117.5,55.5C 117.5,61.8333 117.5,68.1667 117.5,74.5C 115.833,74.5 114.167,74.5 112.5,74.5C 112.5,68.1667 112.5,61.8333 112.5,55.5 Z"/></g>
<g><path style="opacity:1" fill="#161616" d="M 138.5,55.5 C 140.167,55.5 141.833,55.5 143.5,55.5C 143.34,57.1992 143.506,58.8659 144,60.5C 154.701,57.5411 158.368,61.5411 155,72.5C 154.5,73 154,73.5 153.5,74C 148.511,74.4993 143.511,74.6659 138.5,74.5C 138.5,68.1667 138.5,61.8333 138.5,55.5 Z"/></g>
<g><path style="opacity:1" fill="#090909" d="M 206.5,55.5 C 207.833,55.5 209.167,55.5 210.5,55.5C 210.5,56.8333 210.5,58.1667 210.5,59.5C 211.833,59.5 213.167,59.5 214.5,59.5C 214.5,60.5 214.5,61.5 214.5,62.5C 213.167,62.5 211.833,62.5 210.5,62.5C 210.5,65.5 210.5,68.5 210.5,71.5C 211.833,71.5 213.167,71.5 214.5,71.5C 214.5,72.5 214.5,73.5 214.5,74.5C 211.635,74.9452 209.135,74.2785 207,72.5C 206.928,68.4695 206.094,64.6361 204.5,61C 205.885,59.4029 206.551,57.5695 206.5,55.5 Z"/></g>
<g><path style="opacity:1" fill="#0a0a0a" d="M 271.5,55.5 C 272.833,55.5 274.167,55.5 275.5,55.5C 275.334,60.1785 275.501,64.8452 276,69.5C 278.826,71.3398 281.993,72.0065 285.5,71.5C 285.5,72.5 285.5,73.5 285.5,74.5C 282.15,74.665 278.817,74.4983 275.5,74C 274.069,73.5348 272.903,72.7014 272,71.5C 271.501,66.1771 271.334,60.8437 271.5,55.5 Z"/></g>
<g><path style="opacity:1" fill="#0f0f0f" d="M 305.5,55.5 C 306.833,55.5 308.167,55.5 309.5,55.5C 309.215,57.288 309.548,58.9547 310.5,60.5C 321.535,57.3696 325.368,61.3696 322,72.5C 321.5,73 321,73.5 320.5,74C 315.511,74.4993 310.511,74.6659 305.5,74.5C 305.5,68.1667 305.5,61.8333 305.5,55.5 Z"/></g>
<g><path style="opacity:1" fill="#101010" d="M 370.5,55.5 C 372.467,55.2606 374.301,55.5939 376,56.5C 378.096,62.5226 380.596,68.3559 383.5,74C 381.741,74.7975 380.074,74.6309 378.5,73.5C 376.764,69.1259 374.931,64.7925 373,60.5C 371.243,63.6843 369.743,67.0176 368.5,70.5C 370.851,71.0118 372.851,72.0118 374.5,73.5C 370.5,74.8333 366.5,74.8333 362.5,73.5C 365.181,67.474 367.848,61.474 370.5,55.5 Z"/></g>
<g><path style="opacity:1" fill="#181818" d="M 384.5,55.5 C 386.167,55.5 387.833,55.5 389.5,55.5C 389.5,61.8333 389.5,68.1667 389.5,74.5C 387.833,74.5 386.167,74.5 384.5,74.5C 384.5,68.1667 384.5,61.8333 384.5,55.5 Z"/></g>
<g><path style="opacity:1" fill="#0b0b0b" d="M 400.5,55.5 C 401.833,55.5 403.167,55.5 404.5,55.5C 404.334,60.1785 404.501,64.8452 405,69.5C 407.826,71.3398 410.993,72.0065 414.5,71.5C 414.5,72.5 414.5,73.5 414.5,74.5C 410.089,74.979 405.922,74.3124 402,72.5C 400.596,66.9562 400.096,61.2896 400.5,55.5 Z"/></g>
<g><path style="opacity:1" fill="#101010" d="M 435.5,55.5 C 436.833,55.5 438.167,55.5 439.5,55.5C 439.215,57.288 439.548,58.9547 440.5,60.5C 451.143,57.6444 454.976,61.6444 452,72.5C 451.5,73 451,73.5 450.5,74C 445.511,74.4993 440.511,74.6659 435.5,74.5C 435.5,68.1667 435.5,61.8333 435.5,55.5 Z"/></g>
<g><path style="opacity:1" fill="#161616" d="M 121.5,59.5 C 126.651,59.978 131.651,59.978 136.5,59.5C 136.5,64.5 136.5,69.5 136.5,74.5C 131.489,74.6659 126.489,74.4993 121.5,74C 118.864,69.1674 118.864,64.3341 121.5,59.5 Z"/></g>
<g><path style="opacity:1" fill="#121212" d="M 160.5,59.5 C 171.57,57.4037 175.403,61.737 172,72.5C 171.5,73 171,73.5 170.5,74C 159.515,77.345 155.348,73.5117 158,62.5C 159.045,61.6266 159.878,60.6266 160.5,59.5 Z"/></g>
<g><path style="opacity:1" fill="#1a1a1a" d="M 177.5,59.5 C 180.167,59.5 182.833,59.5 185.5,59.5C 185.5,60.5 185.5,61.5 185.5,62.5C 183.533,62.2606 181.699,62.5939 180,63.5C 179.501,67.1516 179.335,70.8183 179.5,74.5C 177.833,74.5 176.167,74.5 174.5,74.5C 174.334,70.4862 174.501,66.4862 175,62.5C 176.045,61.6266 176.878,60.6266 177.5,59.5 Z"/></g>
<g><path style="opacity:1" fill="#0a0a0a" d="M 198.5,60.5 C 199.833,60.5 201.167,60.5 202.5,60.5C 202.5,65.1667 202.5,69.8333 202.5,74.5C 197.821,74.6658 193.155,74.4992 188.5,74C 188,73.5 187.5,73 187,72.5C 183.693,61.3086 187.527,57.3086 198.5,60.5 Z"/></g>
<g><path style="opacity:1" fill="#626262" d="M 198.5,60.5 C 199.919,59.5489 201.585,59.2155 203.5,59.5C 203.821,64.6946 203.487,69.6946 202.5,74.5C 202.5,69.8333 202.5,65.1667 202.5,60.5C 201.167,60.5 199.833,60.5 198.5,60.5 Z"/></g>
<g><path style="opacity:1" fill="#181818" d="M 218.5,59.5 C 230.587,57.901 234.254,62.5677 229.5,73.5C 218.492,77.437 213.992,73.7704 216,62.5C 217.045,61.6266 217.878,60.6266 218.5,59.5 Z"/></g>
<g><path style="opacity:1" fill="#111111" d="M 236.5,59.5 C 238.833,59.5 241.167,59.5 243.5,59.5C 243.5,60.5 243.5,61.5 243.5,62.5C 241.533,62.2606 239.699,62.5939 238,63.5C 237.501,67.1516 237.335,70.8183 237.5,74.5C 236.167,74.5 234.833,74.5 233.5,74.5C 233.334,70.1539 233.501,65.8206 234,61.5C 234.995,60.9341 235.828,60.2674 236.5,59.5 Z"/></g>
<g><path style="opacity:1" fill="#1c1c1c" d="M 287.5,59.5 C 289.167,59.5 290.833,59.5 292.5,59.5C 292.5,62.8333 292.5,66.1667 292.5,69.5C 294.5,69.5 296.5,69.5 298.5,69.5C 298.5,66.1667 298.5,62.8333 298.5,59.5C 299.833,59.5 301.167,59.5 302.5,59.5C 302.666,65.5092 302.499,71.5092 302,77.5C 301.5,78 301,78.5 300.5,79C 296.514,79.4988 292.514,79.6655 288.5,79.5C 288.5,78.1667 288.5,76.8333 288.5,75.5C 291.833,75.5 295.167,75.5 298.5,75.5C 298.5,74.5 298.5,73.5 298.5,72.5C 294.894,72.7892 291.394,72.4558 288,71.5C 287.501,67.5138 287.334,63.5138 287.5,59.5 Z"/></g>
<g><path style="opacity:1" fill="#0b0b0b" d="M 327.5,59.5 C 329.833,59.5 332.167,59.5 334.5,59.5C 334.5,60.5 334.5,61.5 334.5,62.5C 332.278,62.178 330.444,62.8446 329,64.5C 328.502,67.8168 328.335,71.1501 328.5,74.5C 327.167,74.5 325.833,74.5 324.5,74.5C 324.334,70.4862 324.501,66.4862 325,62.5C 326.045,61.6266 326.878,60.6266 327.5,59.5 Z"/></g>
<g><path style="opacity:1" fill="#131313" d="M 337.5,59.5 C 342.596,59.9657 347.596,59.9657 352.5,59.5C 352.5,64.5 352.5,69.5 352.5,74.5C 347.489,74.6659 342.489,74.4993 337.5,74C 334.921,69.2323 334.921,64.399 337.5,59.5 Z"/></g>
<g><path style="opacity:1" fill="#151515" d="M 418.5,59.5 C 423.587,60.1051 428.587,60.1051 433.5,59.5C 433.5,64.5 433.5,69.5 433.5,74.5C 428.125,74.8282 422.792,74.4948 417.5,73.5C 415.917,68.595 416.251,63.9283 418.5,59.5 Z"/></g>
<g><path style="opacity:1" fill="#1f1f1f" d="M 96.5,55.5 C 98.1667,55.5 99.8333,55.5 101.5,55.5C 101.5,61.8333 101.5,68.1667 101.5,74.5C 99.8333,74.5 98.1667,74.5 96.5,74.5C 96.5,68.1667 96.5,61.8333 96.5,55.5 Z"/></g>
<g><path style="opacity:1" fill="#1f1f1f" d="M 245.5,59.5 C 246.833,59.5 248.167,59.5 249.5,59.5C 249.5,62.8333 249.5,66.1667 249.5,69.5C 251.5,69.5 253.5,69.5 255.5,69.5C 255.5,66.1667 255.5,62.8333 255.5,59.5C 257.167,59.5 258.833,59.5 260.5,59.5C 260.91,65.6208 260.41,71.6208 259,77.5C 258.5,78 258,78.5 257.5,79C 253.514,79.4988 249.514,79.6655 245.5,79.5C 245.5,78.1667 245.5,76.8333 245.5,75.5C 248.833,75.5 252.167,75.5 255.5,75.5C 255.5,74.5 255.5,73.5 255.5,72.5C 252.223,72.7839 249.057,72.4505 246,71.5C 245.501,67.5138 245.334,63.5138 245.5,59.5 Z"/></g>
<g><path style="opacity:1" fill="#f11c14" d="M 60.5,62.5 C 61.6005,63.6049 62.2671,64.9382 62.5,66.5C 56.9905,70.8522 54.1572,76.5189 54,83.5C 55.4733,85.0071 57.3066,85.6738 59.5,85.5C 64.1048,84.9645 68.4381,83.6311 72.5,81.5C 74.754,80.8763 76.4206,79.543 77.5,77.5C 84.0582,75.0509 84.7249,76.0509 79.5,80.5C 77.326,80.7497 75.6594,81.7497 74.5,83.5C 67.726,86.5499 60.726,89.0499 53.5,91C 42.1286,92.4599 39.2952,87.9599 45,77.5C 49.3744,71.6247 54.5411,66.6247 60.5,62.5 Z"/></g>
<g><path style="opacity:1" fill="#f4f4f4" d="M 125.5,62.5 C 127.467,62.2606 129.301,62.5939 131,63.5C 131.497,66.146 131.664,68.8127 131.5,71.5C 129.167,71.5 126.833,71.5 124.5,71.5C 124.264,68.3915 124.597,65.3915 125.5,62.5 Z"/></g>
<g><path style="opacity:1" fill="#f4f4f4" d="M 144.5,62.5 C 146.467,62.2606 148.301,62.5939 150,63.5C 150.497,66.146 150.664,68.8127 150.5,71.5C 148.167,71.5 145.833,71.5 143.5,71.5C 143.264,68.3915 143.597,65.3915 144.5,62.5 Z"/></g>
<g><path style="opacity:1" fill="#eaeaea" d="M 163.5,62.5 C 167.24,61.7415 168.907,63.2415 168.5,67C 168.57,70.992 166.57,72.492 162.5,71.5C 162.264,68.3915 162.597,65.3915 163.5,62.5 Z"/></g>
<g><path style="opacity:1" fill="#eaeaea" d="M 191.5,62.5 C 193.792,62.2436 195.959,62.5769 198,63.5C 198.497,66.146 198.664,68.8127 198.5,71.5C 190.766,72.7918 188.433,69.7918 191.5,62.5 Z"/></g>
<g><path style="opacity:1" fill="#f3f3f3" d="M 221.5,62.5 C 223.144,62.2865 224.644,62.6198 226,63.5C 226.769,66.0991 226.602,68.5991 225.5,71C 223.888,71.7203 222.388,71.5536 221,70.5C 220.278,67.7395 220.445,65.0728 221.5,62.5 Z"/></g>
<g><path style="opacity:1" fill="#e6e6e6" d="M 311.5,62.5 C 313.467,62.2606 315.301,62.5939 317,63.5C 317.497,66.146 317.664,68.8127 317.5,71.5C 314.833,71.5 312.167,71.5 309.5,71.5C 309.091,68.1445 309.758,65.1445 311.5,62.5 Z"/></g>
<g><path style="opacity:1" fill="#e9e9e9" d="M 341.5,62.5 C 343.591,62.3184 345.591,62.6518 347.5,63.5C 348.48,66.0865 348.813,68.7531 348.5,71.5C 340.766,72.7918 338.433,69.7918 341.5,62.5 Z"/></g>
<g><path style="opacity:1" fill="#eaeaea" d="M 422.5,62.5 C 424.467,62.2606 426.301,62.5939 428,63.5C 428.497,66.146 428.664,68.8127 428.5,71.5C 420.399,72.5405 418.399,69.5405 422.5,62.5 Z"/></g>
<g><path style="opacity:1" fill="#eaeaea" d="M 441.5,62.5 C 447.204,62.1464 449.037,64.813 447,70.5C 444.619,71.435 442.119,71.7683 439.5,71.5C 439.091,68.1445 439.758,65.1445 441.5,62.5 Z"/></g>
<g><path style="opacity:1" fill="#f9f4f5" d="M 62.5,66.5 C 66.0785,71.3197 69.4118,76.3197 72.5,81.5C 68.4381,83.6311 64.1048,84.9645 59.5,85.5C 57.3066,85.6738 55.4733,85.0071 54,83.5C 54.1572,76.5189 56.9905,70.8522 62.5,66.5 Z"/></g>
<g><path style="opacity:1" fill="#400f90" d="M 79.5,80.5 C 84.3126,84.6582 89.8126,87.6582 96,89.5C 96.8333,89.3333 97.6667,89.1667 98.5,89C 99.9278,87.0838 100.928,84.9171 101.5,82.5C 103.66,84.6371 104.66,87.3038 104.5,90.5C 104.858,99.4875 100.858,102.321 92.5,99C 85.8284,94.515 79.8284,89.3483 74.5,83.5C 75.6594,81.7497 77.326,80.7497 79.5,80.5 Z"/></g>
</svg>
